<svg style="fill-rule:evenodd;pointer-events:none;width:550px;height:400px;background:rgb(255,255,255)" viewBox="0 0 11000 8000"><defs></defs><g display="inline" opacity="1" transform="matrix(1 0 0 1 0 0)"><clipPath id=":o"><path d="m -320 4975.791012436102 l 2432.7234912642098 -55.72530708781567 l 881.1219348439765 258.2730144197757 l 248.28107118333716 63.10246433203631 l 694.9111314564736 972.0114137483788 l -1006.0900740062563 785.3855497062639 l -2284.3065842679484 725.2565957122149 l -966.6409704737927 76.0114137483788 v -2823.211673151751 v -1.1034714274814985 " stroke="rgb(0,0,0)" stroke-opacity="0" stroke-width="14" stroke-linecap="round" stroke-linejoin="round" fill="rgb(135,21,59)" fill-opacity="1" transform="matrix(1 0 0 1 0 0)"></path></clipPath><g clip-path="url(#:o)"><g display="inline" opacity="1" transform="matrix(1 0 0 1 0 0)"><path d="m 940 7199 q 115 30 345 -75 q 460 -210 1035 -885 q 279 -327 485 -663 q 186 -324 278 -456 q 148 -215 370 -382 q 264 -197 767 -438 q 464 -222 1427 -361 q 362 -52 1826 -199 q 1152 -116 1739 -244 q 843 -185 1168 -496 q 330 -316 320 -712 q -7 -311 -232 -713 q -79 -141 -209 -335 l -208 -310 q -225 -344 -231 -510" stroke="rgb(0,0,0)" stroke-opacity="1" stroke-width="20" stroke-linecap="round" stroke-linejoin="round" fill="none"></path></g></g></g></svg>